solid prism
  facet normal 0.0 0.0 1.0
    outer loop
      vertex 0.0 0.0 0.0
      vertex 1.0 0.0 0.0
      vertex 0.5 0.866 0.0
    endloop
  endfacet
  facet normal 0.0 0.0 1.0
    outer loop
      vertex 0.0 0.0 1.0
      vertex 1.0 0.0 1.0
      vertex 0.5 0.866 1.0
    endloop
  endfacet
  facet normal 0.0 -1.0 0.0
    outer loop
      vertex 0.0 0.0 0.0
      vertex 1.0 0.0 0.0
      vertex 1.0 0.0 1.0
    endloop
  endfacet
  facet normal 0.0 -1.0 0.0
    outer loop
      vertex 0.0 0.0 0.0
      vertex 1.0 0.0 1.0
      vertex 0.0 0.0 1.0
    endloop
  endfacet
  facet normal 0.8660190526287391 0.5000110003630134 0.0
    outer loop
      vertex 1.0 0.0 0.0
      vertex 0.5 0.866 0.0
      vertex 0.5 0.866 1.0
    endloop
  endfacet
  facet normal 0.8660190526287391 0.5000110003630134 -0.0
    outer loop
      vertex 1.0 0.0 0.0
      vertex 0.5 0.866 1.0
      vertex 1.0 0.0 1.0
    endloop
  endfacet
  facet normal -0.8660190526287391 0.5000110003630134 0.0
    outer loop
      vertex 0.5 0.866 0.0
      vertex 0.0 0.0 0.0
      vertex 0.0 0.0 1.0
    endloop
  endfacet
  facet normal -0.8660190526287391 0.5000110003630134 0.0
    outer loop
      vertex 0.5 0.866 0.0
      vertex 0.0 0.0 1.0
      vertex 0.5 0.866 1.0
    endloop
  endfacet
endsolid prism
